<svg xmlns="http://www.w3.org/2000/svg" width="1003" height="424" viewBox="0 0 1003 424" fill="none">
    <g filter="url(#filter0_bd_453_2135)">
        <path d="M43 54C43 47.3726 48.3726 42 55 42H948C954.627 42 960 47.3726 960 54V368C960 374.627 954.627 380 948 380H55C48.3726 380 43 374.627 43 368V54Z" fill="#202020" fill-opacity="0.77" shape-rendering="crispEdges"/>
        <path d="M43.6 54C43.6 47.704 48.704 42.6 55 42.6H948C954.296 42.6 959.4 47.704 959.4 54V368C959.4 374.296 954.296 379.4 948 379.4H55C48.7039 379.4 43.6 374.296 43.6 368V54Z" stroke="white" stroke-opacity="0.31" stroke-width="1.2" shape-rendering="crispEdges"/>
    </g>
    <defs>
        <filter id="filter0_bd_453_2135" x="0.299999" y="0.299999" width="1002.4" height="423.4" filterUnits="userSpaceOnUse" color-interpolation-filters="sRGB">
            <feFlood flood-opacity="0" result="BackgroundImageFix"/>
            <feGaussianBlur in="BackgroundImageFix" stdDeviation="4"/>
            <feComposite in2="SourceAlpha" operator="in" result="effect1_backgroundBlur_453_2135"/>
            <feColorMatrix in="SourceAlpha" type="matrix" values="0 0 0 0 0 0 0 0 0 0 0 0 0 0 0 0 0 0 127 0" result="hardAlpha"/>
            <feOffset dy="1"/>
            <feGaussianBlur stdDeviation="21.35"/>
            <feComposite in2="hardAlpha" operator="out"/>
            <feColorMatrix type="matrix" values="0 0 0 0 0.075 0 0 0 0 1 0 0 0 0 0.843662 0 0 0 0.15 0"/>
            <feBlend mode="normal" in2="effect1_backgroundBlur_453_2135" result="effect2_dropShadow_453_2135"/>
            <feBlend mode="normal" in="SourceGraphic" in2="effect2_dropShadow_453_2135" result="shape"/>
        </filter>
    </defs>
</svg>